<svg width="354" height="440" viewBox="0 0 354 440" fill="none" xmlns="http://www.w3.org/2000/svg">
<g filter="url(#filter0_d_674_1209)">
<rect x="6" y="4" width="342" height="428" rx="20" fill="#FFD430"/>
</g>
<path d="M84.0523 362.21C12.5087 355.782 6.00023 358.205 6 359.827V412C6 423.046 14.9543 432 26 432H328C339.046 432 348 423.046 348 412V380.369C348 368.82 338.289 359.669 326.757 360.305C261.671 363.896 147.899 367.945 84.0523 362.21Z" fill="#A0CDFF"/>
<g clip-path="url(#clip0_674_1209)">
<path d="M324.417 20H311.584C309.883 20.0022 308.252 20.6789 307.049 21.8818C305.846 23.0847 305.169 24.7155 305.167 26.4167V43.884C305.168 44.7011 305.414 45.4991 305.873 46.1749C306.332 46.8507 306.984 47.3731 307.743 47.6747C308.503 47.9762 309.335 48.043 310.133 47.8664C310.931 47.6898 311.657 47.2779 312.218 46.684L317.949 40.6173L323.797 46.7423C324.36 47.3317 325.087 47.7392 325.883 47.9122C326.68 48.0853 327.51 48.016 328.267 47.7134C329.023 47.4107 329.672 46.8885 330.13 46.2139C330.587 45.5394 330.832 44.7434 330.834 43.9283V26.4167C330.831 24.7155 330.155 23.0847 328.952 21.8818C327.749 20.6789 326.118 20.0022 324.417 20ZM327.334 43.9283C327.333 44.0447 327.298 44.1583 327.233 44.2546C327.168 44.3509 327.075 44.4254 326.967 44.4687C326.859 44.512 326.741 44.522 326.627 44.4974C326.513 44.4728 326.41 44.4148 326.329 44.3308L319.212 36.8747C319.049 36.703 318.851 36.5664 318.633 36.4734C318.414 36.3803 318.179 36.3327 317.942 36.3333C317.705 36.334 317.47 36.383 317.252 36.4773C317.034 36.5715 316.838 36.7091 316.675 36.8817L309.675 44.2842C309.597 44.3724 309.493 44.4337 309.378 44.4592C309.263 44.4848 309.143 44.4733 309.034 44.4265C308.923 44.3875 308.827 44.3137 308.761 44.216C308.695 44.1183 308.662 44.0019 308.667 43.884V26.4167C308.667 25.6431 308.974 24.9013 309.521 24.3543C310.068 23.8073 310.81 23.5 311.584 23.5H324.417C325.191 23.5 325.932 23.8073 326.479 24.3543C327.026 24.9013 327.334 25.6431 327.334 26.4167V43.9283Z" fill="white"/>
</g>
<defs>
<filter id="filter0_d_674_1209" x="0" y="0" width="354" height="440" filterUnits="userSpaceOnUse" color-interpolation-filters="sRGB">
<feFlood flood-opacity="0" result="BackgroundImageFix"/>
<feColorMatrix in="SourceAlpha" type="matrix" values="0 0 0 0 0 0 0 0 0 0 0 0 0 0 0 0 0 0 127 0" result="hardAlpha"/>
<feOffset dy="2"/>
<feGaussianBlur stdDeviation="3"/>
<feComposite in2="hardAlpha" operator="out"/>
<feColorMatrix type="matrix" values="0 0 0 0 0 0 0 0 0 0 0 0 0 0 0 0 0 0 0.1 0"/>
<feBlend mode="normal" in2="BackgroundImageFix" result="effect1_dropShadow_674_1209"/>
<feBlend mode="normal" in="SourceGraphic" in2="effect1_dropShadow_674_1209" result="shape"/>
</filter>
<clipPath id="clip0_674_1209">
<rect width="28" height="28" fill="white" transform="translate(304 20)"/>
</clipPath>
</defs>
</svg>
